<svg xmlns="http://www.w3.org/2000/svg">
    <symbol id="palm_left" viewBox="0 0 64 64">
        <defs><clipPath id="a"><rect class="a" width="64" height="64" transform="translate(143 1915)"/></clipPath></defs><g class="b" transform="translate(-143 -1915)"><g transform="translate(139.867 1912.179)"><path class="c" d="M30.065,41.682,27.3,35.763a3.265,3.265,0,0,1,1.579-4.34h0A3.265,3.265,0,0,1,33.224,33l2.76,5.919"/><path class="c" d="M35.524,37.935l-1.84-3.946a3.265,3.265,0,0,1,1.579-4.34h0a3.265,3.265,0,0,1,4.34,1.579l2.76,5.919"/><path class="c" d="M36.7,66.211c-2.185-4.686-7.6-2.646-15.429-10.07A99.766,99.766,0,0,1,14.2,48.877s2.248-3.55,5.717-2.887c2.281.436,4.409,3.945,6.141,4.439a1.8,1.8,0,0,0,.844-.068L14.486,23.725a3.265,3.265,0,0,1,1.579-4.34h0a3.265,3.265,0,0,1,4.34,1.579l9.66,20.716"/><path class="d" d="M40.063,32.216a4.785,4.785,0,0,1,2.5-2.367c1.64-.615,2.959.293,3.953,1.8,7.01,10.607,6.888,23.482,7.98,25.825"/><path class="e" d="M19.937,8.619a68.708,68.708,0,0,1,30.477,5.442"/><path class="e" d="M24.291,4.265,19.937,8.619l4.354,4.354"/><circle class="d" cx="2.721" cy="2.721" r="2.721" transform="translate(50.958 13.517)"/></g></g>
    </symbol>
    <symbol id="palm" viewBox="0 0 64 64">
        <defs><clipPath id="a"><rect class="a" width="64" height="64" transform="translate(143 1915)"/></clipPath></defs><g class="b" transform="translate(-143 -1915)"><g transform="translate(140.056 1912.471)"><line class="c" x2="8.931" transform="translate(5.229 17.407)"/><path class="d" d="M8.578,20.756,5.229,17.407l3.349-3.349"/><line class="c" x1="8.931" transform="translate(23.092 17.407)"/><path class="d" d="M28.674,14.058l3.349,3.349-3.349,3.349"/><line class="c" y2="8.931" transform="translate(18.626 4.01)"/><path class="d" d="M15.277,7.359,18.626,4.01l3.349,3.349"/><line class="c" y1="8.931" transform="translate(18.626 21.873)"/><path class="d" d="M21.975,27.455,18.626,30.8l-3.349-3.349"/><path class="e" d="M44.3,35.27V34.153A3.349,3.349,0,0,1,47.653,30.8h0A3.349,3.349,0,0,1,51,34.153v6.7"/><path class="e" d="M51,40.852V35.27a3.349,3.349,0,0,1,3.349-3.349h0A3.349,3.349,0,0,1,57.7,35.27v6.7"/><path class="e" d="M37.605,48.667V16.291a3.349,3.349,0,0,1,3.349-3.349h0A3.349,3.349,0,0,1,44.3,16.291V40.852"/><path class="e" d="M37.605,66.529c0-3.489-7.536-8.652-8.373-16.932a56.806,56.806,0,0,1-.139-5.775,5.157,5.157,0,0,1,3.809-4.9L37.791,37.6"/><path class="d" d="M57.7,36.386A4.908,4.908,0,0,1,61.05,35.27c1.791.14,2.526,1.572,2.9,3.384,2.826,13.851-2.9,25.224-2.9,27.876"/></g></g>
    </symbol>
    <symbol id="palm_up" viewBox="0 0 64 64">
        <defs><clipPath id="a"><rect class="a" width="64" height="64" transform="translate(143 1915)"/></clipPath></defs><g class="b" transform="translate(-143 -1915)"><g transform="translate(138.797 1903.788)"><path class="c" d="M39.328,37.954,37.35,33.712a3.51,3.51,0,0,1,1.7-4.665h0a3.51,3.51,0,0,1,4.665,1.7l3.956,8.484"/><path class="c" d="M47.669,39.229,44.7,32.866A3.51,3.51,0,0,1,46.4,28.2h0a3.51,3.51,0,0,1,4.665,1.7l3.462,7.423"/><path class="c" d="M48.932,69.626c-3.97-7.994-9.649-6.026-18.07-14.006a107.255,107.255,0,0,1-7.6-7.809s2.448-3.5,6.11-2.532c3.145.83,4.776,3.669,6.637,4.2a1.931,1.931,0,0,0,.907-.073L25.053,23.953a3.51,3.51,0,0,1,1.7-4.665h0a3.51,3.51,0,0,1,4.665,1.7l9.4,20.149"/><path class="d" d="M52.548,33.08a5.144,5.144,0,0,1,2.687-2.544c1.763-.661,3.181.315,4.25,1.932,7.536,11.4,6.137,25.243,7.311,27.762"/><path class="d" d="M10.435,17.659a73.862,73.862,0,0,0,5.851,32.764"/><path class="e" d="M5.755,22.34l4.681-4.681,4.681,4.681"/><circle class="d" cx="2.925" cy="2.925" r="2.925" transform="translate(13.946 49.253)"/></g></g>
    </symbol>
    <symbol id="arrow_right" viewBox="0 0 66.167 66.167">
        <g data-name="Group 1235"><g data-name="Ellipse 9" fill="#fff" stroke="#707070" transform="rotate(180 33.083 33.083)"><circle class="cls-2" cx="33.083" cy="33.083" r="33.083"/><circle fill="none" cx="33.083" cy="33.083" r="32.583"/></g><path data-name="Path 678" d="M27.609 45.449l18.932-12.07-18.932-12.071z"/></g>
        <!-- <g id="Group_1235" data-name="Group 1235" transform="translate(183.167 3690) rotate(180)">
            <g id="Ellipse_9" data-name="Ellipse 9" fill="#fff" stroke="#707070" transform="translate(117 3623.833)">
                <circle class="cls-2" cx="33.083" cy="33.083" r="33.083"/>
                <circle fill="none" cx="33.083" cy="33.083" r="32.583"/>
            </g>
            <path id="Path_678" data-name="Path 678" d="M371.373,3573.2l-18.932,12.07,18.932,12.071Z" transform="translate(-215.815 71.351)"/>
        </g> -->
    </symbol>
    <symbol id="arrow_left" viewBox="0 0 66.167 66.167">
        <g data-name="Group 1234"><g data-name="Ellipse 9" fill="#fff" stroke="#707070"><circle cx="33.083" cy="33.083" r="33.083"/><circle fill="none" cx="33.083" cy="33.083" r="32.583"/></g><path data-name="Path 678" d="M38.558 20.718l-18.932 12.07 18.932 12.071z"/></g>
    </symbol>
    <symbol id="palm_right" viewBox="0 0 38.815 64">
        <g transform="translate(-13.694 -1.325)"><path class="a" d="M33.279,37.814l2.654-5.693A3.14,3.14,0,0,1,40.107,30.6h0a3.14,3.14,0,0,1,1.519,4.173l-2.654,5.693"/><path class="a" d="M39.414,39.52l1.77-3.8a3.14,3.14,0,0,1,4.173-1.519h0a3.14,3.14,0,0,1,1.519,4.173l-2.654,5.693"/><path class="a" d="M19.309,57.866c2.1-4.507-2.746-7.232-2.12-17.592a95.95,95.95,0,0,1,.984-9.7s4.005-.539,5.661,2.427c1.089,1.95-.181,5.688.526,7.268a1.728,1.728,0,0,0,.572.58L36.877,15.236a3.14,3.14,0,0,1,4.173-1.519h0a3.14,3.14,0,0,1,1.519,4.173L33.279,37.814"/><path class="b" d="M46.434,39.328a4.6,4.6,0,0,1,3.289.378c1.467.828,1.614,2.361,1.12,4.023C47.361,55.453,37.2,62.485,36.15,64.738"/><path class="b" d="M49.1,6.9a66.079,66.079,0,0,0-29.311,5.234"/><path class="c" d="M44.918,2.713,49.1,6.9l-4.187,4.187"/><circle class="b" cx="2.617" cy="2.617" r="2.617" transform="translate(15.083 10.565)"/></g>
    </symbol>
</svg>